<mxfile host="app.diagrams.net" modified="2024-05-20T09:30:21.481Z" agent="Mozilla/5.0 (Windows NT 10.0; Win64; x64) AppleWebKit/537.36 (KHTML, like Gecko) Chrome/124.0.0.0 Safari/537.36" etag="Byl6-pilD6LRBKjc4kAj" version="24.4.4" type="github" pages="2">
  <diagram id="ZZhZsLMx4fixm7O-FX01" name="Use Case">
    <mxGraphModel dx="1035" dy="501" grid="1" gridSize="10" guides="1" tooltips="1" connect="1" arrows="1" fold="1" page="1" pageScale="1" pageWidth="827" pageHeight="1169" math="0" shadow="0">
      <root>
        <mxCell id="0" />
        <mxCell id="1" parent="0" />
        <mxCell id="jrF-69iuw89U0HwYCnOZ-4" style="edgeStyle=orthogonalEdgeStyle;rounded=0;orthogonalLoop=1;jettySize=auto;html=1;" edge="1" parent="1" source="jrF-69iuw89U0HwYCnOZ-1" target="jrF-69iuw89U0HwYCnOZ-2">
          <mxGeometry relative="1" as="geometry" />
        </mxCell>
        <mxCell id="jrF-69iuw89U0HwYCnOZ-1" value="Admin" style="shape=umlActor;verticalLabelPosition=bottom;verticalAlign=top;html=1;outlineConnect=0;" vertex="1" parent="1">
          <mxGeometry x="70" y="270" width="30" height="60" as="geometry" />
        </mxCell>
        <mxCell id="jrF-69iuw89U0HwYCnOZ-2" value="Login&lt;br&gt;&lt;div&gt;&lt;span style=&quot;background-color: initial;&quot;&gt;&amp;nbsp;admin&lt;/span&gt;&lt;/div&gt;" style="ellipse;whiteSpace=wrap;html=1;" vertex="1" parent="1">
          <mxGeometry x="170" y="270" width="90" height="60" as="geometry" />
        </mxCell>
        <mxCell id="jrF-69iuw89U0HwYCnOZ-7" value="Data Kemasan" style="ellipse;whiteSpace=wrap;html=1;" vertex="1" parent="1">
          <mxGeometry x="460" y="240" width="80" height="40" as="geometry" />
        </mxCell>
        <mxCell id="jrF-69iuw89U0HwYCnOZ-9" value="Data Produk" style="ellipse;whiteSpace=wrap;html=1;" vertex="1" parent="1">
          <mxGeometry x="440" y="420" width="80" height="40" as="geometry" />
        </mxCell>
        <mxCell id="jrF-69iuw89U0HwYCnOZ-10" value="Data Mesin" style="ellipse;whiteSpace=wrap;html=1;" vertex="1" parent="1">
          <mxGeometry x="420" y="690" width="80" height="40" as="geometry" />
        </mxCell>
        <mxCell id="jrF-69iuw89U0HwYCnOZ-14" value="return" style="html=1;verticalAlign=bottom;endArrow=open;dashed=1;endSize=8;curved=0;rounded=0;entryX=0.5;entryY=0;entryDx=0;entryDy=0;exitX=0;exitY=0.5;exitDx=0;exitDy=0;" edge="1" parent="1" source="jrF-69iuw89U0HwYCnOZ-7" target="jrF-69iuw89U0HwYCnOZ-2">
          <mxGeometry relative="1" as="geometry">
            <mxPoint x="430" y="219.5" as="sourcePoint" />
            <mxPoint x="350" y="219.5" as="targetPoint" />
          </mxGeometry>
        </mxCell>
        <mxCell id="jrF-69iuw89U0HwYCnOZ-16" value="return" style="html=1;verticalAlign=bottom;endArrow=open;dashed=1;endSize=8;curved=0;rounded=0;entryX=1;entryY=0.5;entryDx=0;entryDy=0;" edge="1" parent="1" source="jrF-69iuw89U0HwYCnOZ-9" target="jrF-69iuw89U0HwYCnOZ-2">
          <mxGeometry relative="1" as="geometry">
            <mxPoint x="430" y="310" as="sourcePoint" />
            <mxPoint x="280" y="380.5" as="targetPoint" />
          </mxGeometry>
        </mxCell>
        <mxCell id="jrF-69iuw89U0HwYCnOZ-19" value="return" style="html=1;verticalAlign=bottom;endArrow=open;dashed=1;endSize=8;curved=0;rounded=0;entryX=0.5;entryY=1;entryDx=0;entryDy=0;exitX=0.5;exitY=0;exitDx=0;exitDy=0;" edge="1" parent="1" source="jrF-69iuw89U0HwYCnOZ-10" target="jrF-69iuw89U0HwYCnOZ-2">
          <mxGeometry relative="1" as="geometry">
            <mxPoint x="450" y="670" as="sourcePoint" />
            <mxPoint x="290" y="370" as="targetPoint" />
          </mxGeometry>
        </mxCell>
        <mxCell id="jrF-69iuw89U0HwYCnOZ-25" style="edgeStyle=orthogonalEdgeStyle;rounded=0;orthogonalLoop=1;jettySize=auto;html=1;entryX=0;entryY=0.5;entryDx=0;entryDy=0;" edge="1" parent="1" source="jrF-69iuw89U0HwYCnOZ-20" target="jrF-69iuw89U0HwYCnOZ-24">
          <mxGeometry relative="1" as="geometry" />
        </mxCell>
        <mxCell id="jrF-69iuw89U0HwYCnOZ-20" value="Pegawai" style="shape=umlActor;verticalLabelPosition=bottom;verticalAlign=top;html=1;outlineConnect=0;" vertex="1" parent="1">
          <mxGeometry x="80" y="440" width="30" height="60" as="geometry" />
        </mxCell>
        <mxCell id="jrF-69iuw89U0HwYCnOZ-22" value="Data Pegawai" style="ellipse;whiteSpace=wrap;html=1;" vertex="1" parent="1">
          <mxGeometry x="440" y="20" width="80" height="40" as="geometry" />
        </mxCell>
        <mxCell id="jrF-69iuw89U0HwYCnOZ-24" value="Login&lt;br&gt;&lt;div&gt;&lt;span style=&quot;background-color: initial;&quot;&gt;&amp;nbsp;Pegawai&lt;/span&gt;&lt;/div&gt;" style="ellipse;whiteSpace=wrap;html=1;" vertex="1" parent="1">
          <mxGeometry x="170" y="440" width="90" height="60" as="geometry" />
        </mxCell>
        <mxCell id="jrF-69iuw89U0HwYCnOZ-26" value="return" style="html=1;verticalAlign=bottom;endArrow=open;dashed=1;endSize=8;curved=0;rounded=0;exitX=0;exitY=0.5;exitDx=0;exitDy=0;entryX=0;entryY=0;entryDx=0;entryDy=0;" edge="1" parent="1" source="jrF-69iuw89U0HwYCnOZ-22" target="jrF-69iuw89U0HwYCnOZ-2">
          <mxGeometry relative="1" as="geometry">
            <mxPoint x="360" y="240" as="sourcePoint" />
            <mxPoint x="280" y="240" as="targetPoint" />
          </mxGeometry>
        </mxCell>
        <mxCell id="jrF-69iuw89U0HwYCnOZ-27" value="return" style="html=1;verticalAlign=bottom;endArrow=open;dashed=1;endSize=8;curved=0;rounded=0;entryX=1;entryY=0.5;entryDx=0;entryDy=0;exitX=0;exitY=0;exitDx=0;exitDy=0;" edge="1" parent="1" source="jrF-69iuw89U0HwYCnOZ-10" target="jrF-69iuw89U0HwYCnOZ-24">
          <mxGeometry relative="1" as="geometry">
            <mxPoint x="360" y="340" as="sourcePoint" />
            <mxPoint x="280" y="340" as="targetPoint" />
          </mxGeometry>
        </mxCell>
        <mxCell id="jrF-69iuw89U0HwYCnOZ-28" value="return" style="html=1;verticalAlign=bottom;endArrow=open;dashed=1;endSize=8;curved=0;rounded=0;exitX=0.5;exitY=1;exitDx=0;exitDy=0;entryX=0.933;entryY=0.2;entryDx=0;entryDy=0;entryPerimeter=0;" edge="1" parent="1" source="jrF-69iuw89U0HwYCnOZ-9" target="jrF-69iuw89U0HwYCnOZ-24">
          <mxGeometry relative="1" as="geometry">
            <mxPoint x="360" y="340" as="sourcePoint" />
            <mxPoint x="280" y="340" as="targetPoint" />
          </mxGeometry>
        </mxCell>
        <mxCell id="jrF-69iuw89U0HwYCnOZ-29" value="return" style="html=1;verticalAlign=bottom;endArrow=open;dashed=1;endSize=8;curved=0;rounded=0;exitX=0;exitY=1;exitDx=0;exitDy=0;entryX=1;entryY=0;entryDx=0;entryDy=0;" edge="1" parent="1" source="jrF-69iuw89U0HwYCnOZ-7" target="jrF-69iuw89U0HwYCnOZ-24">
          <mxGeometry relative="1" as="geometry">
            <mxPoint x="360" y="340" as="sourcePoint" />
            <mxPoint x="280" y="340" as="targetPoint" />
          </mxGeometry>
        </mxCell>
        <mxCell id="jrF-69iuw89U0HwYCnOZ-30" value="Tambah Data" style="ellipse;whiteSpace=wrap;html=1;" vertex="1" parent="1">
          <mxGeometry x="610" width="60" height="35" as="geometry" />
        </mxCell>
        <mxCell id="jrF-69iuw89U0HwYCnOZ-31" value="Edit Data" style="ellipse;whiteSpace=wrap;html=1;" vertex="1" parent="1">
          <mxGeometry x="605" y="90" width="70" height="30" as="geometry" />
        </mxCell>
        <mxCell id="jrF-69iuw89U0HwYCnOZ-32" value="return" style="html=1;verticalAlign=bottom;endArrow=open;dashed=1;endSize=8;curved=0;rounded=0;exitX=0;exitY=0.5;exitDx=0;exitDy=0;" edge="1" parent="1" source="jrF-69iuw89U0HwYCnOZ-30">
          <mxGeometry relative="1" as="geometry">
            <mxPoint x="590" y="40" as="sourcePoint" />
            <mxPoint x="520" y="40" as="targetPoint" />
          </mxGeometry>
        </mxCell>
        <mxCell id="jrF-69iuw89U0HwYCnOZ-33" value="return" style="html=1;verticalAlign=bottom;endArrow=open;dashed=1;endSize=8;curved=0;rounded=0;exitX=0;exitY=0.5;exitDx=0;exitDy=0;entryX=0.704;entryY=1.042;entryDx=0;entryDy=0;entryPerimeter=0;" edge="1" parent="1" source="jrF-69iuw89U0HwYCnOZ-31" target="jrF-69iuw89U0HwYCnOZ-22">
          <mxGeometry relative="1" as="geometry">
            <mxPoint x="590" y="40" as="sourcePoint" />
            <mxPoint x="520" y="50" as="targetPoint" />
          </mxGeometry>
        </mxCell>
        <mxCell id="jrF-69iuw89U0HwYCnOZ-34" value="Lihat Data" style="ellipse;whiteSpace=wrap;html=1;" vertex="1" parent="1">
          <mxGeometry x="610" y="50" width="70" height="30" as="geometry" />
        </mxCell>
        <mxCell id="jrF-69iuw89U0HwYCnOZ-35" value="Delete Data" style="ellipse;whiteSpace=wrap;html=1;" vertex="1" parent="1">
          <mxGeometry x="610" y="130" width="70" height="30" as="geometry" />
        </mxCell>
        <mxCell id="jrF-69iuw89U0HwYCnOZ-36" value="return" style="html=1;verticalAlign=bottom;endArrow=open;dashed=1;endSize=8;curved=0;rounded=0;entryX=1;entryY=1;entryDx=0;entryDy=0;exitX=0;exitY=0.5;exitDx=0;exitDy=0;" edge="1" parent="1" source="jrF-69iuw89U0HwYCnOZ-34" target="jrF-69iuw89U0HwYCnOZ-22">
          <mxGeometry relative="1" as="geometry">
            <mxPoint x="580" y="310" as="sourcePoint" />
            <mxPoint x="500" y="310" as="targetPoint" />
          </mxGeometry>
        </mxCell>
        <mxCell id="jrF-69iuw89U0HwYCnOZ-37" value="return" style="html=1;verticalAlign=bottom;endArrow=open;dashed=1;endSize=8;curved=0;rounded=0;entryX=0.5;entryY=1;entryDx=0;entryDy=0;exitX=0;exitY=0.5;exitDx=0;exitDy=0;" edge="1" parent="1" source="jrF-69iuw89U0HwYCnOZ-35" target="jrF-69iuw89U0HwYCnOZ-22">
          <mxGeometry relative="1" as="geometry">
            <mxPoint x="580" y="310" as="sourcePoint" />
            <mxPoint x="500" y="310" as="targetPoint" />
          </mxGeometry>
        </mxCell>
        <mxCell id="jrF-69iuw89U0HwYCnOZ-50" value="Edit Data" style="ellipse;whiteSpace=wrap;html=1;" vertex="1" parent="1">
          <mxGeometry x="715" y="302" width="70" height="30" as="geometry" />
        </mxCell>
        <mxCell id="jrF-69iuw89U0HwYCnOZ-51" value="return" style="html=1;verticalAlign=bottom;endArrow=open;dashed=1;endSize=8;curved=0;rounded=0;exitX=0;exitY=0.5;exitDx=0;exitDy=0;entryX=1;entryY=0;entryDx=0;entryDy=0;" edge="1" parent="1" target="jrF-69iuw89U0HwYCnOZ-7">
          <mxGeometry relative="1" as="geometry">
            <mxPoint x="720" y="230" as="sourcePoint" />
            <mxPoint x="630" y="252" as="targetPoint" />
          </mxGeometry>
        </mxCell>
        <mxCell id="jrF-69iuw89U0HwYCnOZ-52" value="return" style="html=1;verticalAlign=bottom;endArrow=open;dashed=1;endSize=8;curved=0;rounded=0;exitX=0;exitY=0.5;exitDx=0;exitDy=0;entryX=1;entryY=1;entryDx=0;entryDy=0;" edge="1" parent="1" source="jrF-69iuw89U0HwYCnOZ-50" target="jrF-69iuw89U0HwYCnOZ-7">
          <mxGeometry relative="1" as="geometry">
            <mxPoint x="700" y="252" as="sourcePoint" />
            <mxPoint x="606.3200000000002" y="273.67999999999995" as="targetPoint" />
          </mxGeometry>
        </mxCell>
        <mxCell id="jrF-69iuw89U0HwYCnOZ-53" value="Lihat Data" style="ellipse;whiteSpace=wrap;html=1;" vertex="1" parent="1">
          <mxGeometry x="720" y="262" width="70" height="30" as="geometry" />
        </mxCell>
        <mxCell id="jrF-69iuw89U0HwYCnOZ-54" value="Delete Data" style="ellipse;whiteSpace=wrap;html=1;" vertex="1" parent="1">
          <mxGeometry x="720" y="342" width="70" height="30" as="geometry" />
        </mxCell>
        <mxCell id="jrF-69iuw89U0HwYCnOZ-55" value="return" style="html=1;verticalAlign=bottom;endArrow=open;dashed=1;endSize=8;curved=0;rounded=0;entryX=1;entryY=0.5;entryDx=0;entryDy=0;exitX=0;exitY=0.5;exitDx=0;exitDy=0;" edge="1" parent="1" source="jrF-69iuw89U0HwYCnOZ-53" target="jrF-69iuw89U0HwYCnOZ-7">
          <mxGeometry relative="1" as="geometry">
            <mxPoint x="690" y="522" as="sourcePoint" />
            <mxPoint x="618.2842712474621" y="266.14213562373095" as="targetPoint" />
          </mxGeometry>
        </mxCell>
        <mxCell id="jrF-69iuw89U0HwYCnOZ-56" value="return" style="html=1;verticalAlign=bottom;endArrow=open;dashed=1;endSize=8;curved=0;rounded=0;entryX=0.5;entryY=1;entryDx=0;entryDy=0;exitX=0;exitY=0.5;exitDx=0;exitDy=0;" edge="1" parent="1" source="jrF-69iuw89U0HwYCnOZ-54" target="jrF-69iuw89U0HwYCnOZ-7">
          <mxGeometry relative="1" as="geometry">
            <mxPoint x="690" y="522" as="sourcePoint" />
            <mxPoint x="590" y="271.9999999999999" as="targetPoint" />
          </mxGeometry>
        </mxCell>
        <mxCell id="jrF-69iuw89U0HwYCnOZ-57" value="Tambah Data" style="ellipse;whiteSpace=wrap;html=1;" vertex="1" parent="1">
          <mxGeometry x="725" y="210" width="60" height="35" as="geometry" />
        </mxCell>
        <mxCell id="jrF-69iuw89U0HwYCnOZ-58" value="Edit Data" style="ellipse;whiteSpace=wrap;html=1;" vertex="1" parent="1">
          <mxGeometry x="735" y="492" width="70" height="30" as="geometry" />
        </mxCell>
        <mxCell id="jrF-69iuw89U0HwYCnOZ-59" value="return" style="html=1;verticalAlign=bottom;endArrow=open;dashed=1;endSize=8;curved=0;rounded=0;exitX=0;exitY=0.5;exitDx=0;exitDy=0;entryX=0.5;entryY=0;entryDx=0;entryDy=0;" edge="1" parent="1" target="jrF-69iuw89U0HwYCnOZ-9">
          <mxGeometry relative="1" as="geometry">
            <mxPoint x="740" y="420" as="sourcePoint" />
            <mxPoint x="548" y="436" as="targetPoint" />
          </mxGeometry>
        </mxCell>
        <mxCell id="jrF-69iuw89U0HwYCnOZ-60" value="return" style="html=1;verticalAlign=bottom;endArrow=open;dashed=1;endSize=8;curved=0;rounded=0;exitX=0;exitY=0.5;exitDx=0;exitDy=0;entryX=0.974;entryY=0.799;entryDx=0;entryDy=0;entryPerimeter=0;" edge="1" parent="1" source="jrF-69iuw89U0HwYCnOZ-58" target="jrF-69iuw89U0HwYCnOZ-9">
          <mxGeometry relative="1" as="geometry">
            <mxPoint x="720" y="442" as="sourcePoint" />
            <mxPoint x="548" y="464" as="targetPoint" />
          </mxGeometry>
        </mxCell>
        <mxCell id="jrF-69iuw89U0HwYCnOZ-61" value="Lihat Data" style="ellipse;whiteSpace=wrap;html=1;" vertex="1" parent="1">
          <mxGeometry x="740" y="452" width="70" height="30" as="geometry" />
        </mxCell>
        <mxCell id="jrF-69iuw89U0HwYCnOZ-62" value="Delete Data" style="ellipse;whiteSpace=wrap;html=1;" vertex="1" parent="1">
          <mxGeometry x="740" y="532" width="70" height="30" as="geometry" />
        </mxCell>
        <mxCell id="jrF-69iuw89U0HwYCnOZ-63" value="return" style="html=1;verticalAlign=bottom;endArrow=open;dashed=1;endSize=8;curved=0;rounded=0;entryX=1;entryY=0.5;entryDx=0;entryDy=0;exitX=0;exitY=0.5;exitDx=0;exitDy=0;" edge="1" parent="1" source="jrF-69iuw89U0HwYCnOZ-61" target="jrF-69iuw89U0HwYCnOZ-9">
          <mxGeometry relative="1" as="geometry">
            <mxPoint x="710" y="712" as="sourcePoint" />
            <mxPoint x="560" y="450" as="targetPoint" />
          </mxGeometry>
        </mxCell>
        <mxCell id="jrF-69iuw89U0HwYCnOZ-64" value="return" style="html=1;verticalAlign=bottom;endArrow=open;dashed=1;endSize=8;curved=0;rounded=0;entryX=0.754;entryY=1.004;entryDx=0;entryDy=0;exitX=0;exitY=0.5;exitDx=0;exitDy=0;entryPerimeter=0;" edge="1" parent="1" source="jrF-69iuw89U0HwYCnOZ-62" target="jrF-69iuw89U0HwYCnOZ-9">
          <mxGeometry relative="1" as="geometry">
            <mxPoint x="710" y="712" as="sourcePoint" />
            <mxPoint x="520" y="470" as="targetPoint" />
          </mxGeometry>
        </mxCell>
        <mxCell id="jrF-69iuw89U0HwYCnOZ-65" value="Tambah Data" style="ellipse;whiteSpace=wrap;html=1;" vertex="1" parent="1">
          <mxGeometry x="745" y="400" width="60" height="35" as="geometry" />
        </mxCell>
        <mxCell id="jrF-69iuw89U0HwYCnOZ-66" value="Edit Data" style="ellipse;whiteSpace=wrap;html=1;" vertex="1" parent="1">
          <mxGeometry x="725" y="752" width="70" height="30" as="geometry" />
        </mxCell>
        <mxCell id="jrF-69iuw89U0HwYCnOZ-67" value="return" style="html=1;verticalAlign=bottom;endArrow=open;dashed=1;endSize=8;curved=0;rounded=0;exitX=0;exitY=0.5;exitDx=0;exitDy=0;entryX=1;entryY=0;entryDx=0;entryDy=0;" edge="1" parent="1" target="jrF-69iuw89U0HwYCnOZ-10">
          <mxGeometry relative="1" as="geometry">
            <mxPoint x="730" y="680" as="sourcePoint" />
            <mxPoint x="538" y="696" as="targetPoint" />
          </mxGeometry>
        </mxCell>
        <mxCell id="jrF-69iuw89U0HwYCnOZ-68" value="return" style="html=1;verticalAlign=bottom;endArrow=open;dashed=1;endSize=8;curved=0;rounded=0;exitX=0;exitY=0.5;exitDx=0;exitDy=0;entryX=1;entryY=1;entryDx=0;entryDy=0;" edge="1" parent="1" source="jrF-69iuw89U0HwYCnOZ-66" target="jrF-69iuw89U0HwYCnOZ-10">
          <mxGeometry relative="1" as="geometry">
            <mxPoint x="710" y="702" as="sourcePoint" />
            <mxPoint x="538" y="724" as="targetPoint" />
          </mxGeometry>
        </mxCell>
        <mxCell id="jrF-69iuw89U0HwYCnOZ-69" value="Lihat Data" style="ellipse;whiteSpace=wrap;html=1;" vertex="1" parent="1">
          <mxGeometry x="730" y="712" width="70" height="30" as="geometry" />
        </mxCell>
        <mxCell id="jrF-69iuw89U0HwYCnOZ-70" value="Delete Data" style="ellipse;whiteSpace=wrap;html=1;" vertex="1" parent="1">
          <mxGeometry x="730" y="792" width="70" height="30" as="geometry" />
        </mxCell>
        <mxCell id="jrF-69iuw89U0HwYCnOZ-71" value="return" style="html=1;verticalAlign=bottom;endArrow=open;dashed=1;endSize=8;curved=0;rounded=0;entryX=1;entryY=0.5;entryDx=0;entryDy=0;exitX=0;exitY=0.5;exitDx=0;exitDy=0;" edge="1" parent="1" source="jrF-69iuw89U0HwYCnOZ-69" target="jrF-69iuw89U0HwYCnOZ-10">
          <mxGeometry relative="1" as="geometry">
            <mxPoint x="700" y="972" as="sourcePoint" />
            <mxPoint x="550" y="710" as="targetPoint" />
          </mxGeometry>
        </mxCell>
        <mxCell id="jrF-69iuw89U0HwYCnOZ-72" value="return" style="html=1;verticalAlign=bottom;endArrow=open;dashed=1;endSize=8;curved=0;rounded=0;entryX=0.5;entryY=1;entryDx=0;entryDy=0;exitX=0;exitY=0.5;exitDx=0;exitDy=0;" edge="1" parent="1" source="jrF-69iuw89U0HwYCnOZ-70" target="jrF-69iuw89U0HwYCnOZ-10">
          <mxGeometry relative="1" as="geometry">
            <mxPoint x="700" y="972" as="sourcePoint" />
            <mxPoint x="510" y="730" as="targetPoint" />
          </mxGeometry>
        </mxCell>
        <mxCell id="jrF-69iuw89U0HwYCnOZ-73" value="Tambah Data" style="ellipse;whiteSpace=wrap;html=1;" vertex="1" parent="1">
          <mxGeometry x="735" y="660" width="60" height="35" as="geometry" />
        </mxCell>
      </root>
    </mxGraphModel>
  </diagram>
  <diagram name="Page-1" id="2YBvvXClWsGukQMizWep">
    <mxGraphModel dx="880" dy="426" grid="1" gridSize="10" guides="1" tooltips="1" connect="1" arrows="1" fold="1" page="1" pageScale="1" pageWidth="850" pageHeight="1100" math="0" shadow="0">
      <root>
        <mxCell id="0" />
        <mxCell id="1" parent="0" />
        <mxCell id="aM9ryv3xv72pqoxQDRHE-1" value=":Object" style="shape=umlLifeline;perimeter=lifelinePerimeter;whiteSpace=wrap;html=1;container=0;dropTarget=0;collapsible=0;recursiveResize=0;outlineConnect=0;portConstraint=eastwest;newEdgeStyle={&quot;edgeStyle&quot;:&quot;elbowEdgeStyle&quot;,&quot;elbow&quot;:&quot;vertical&quot;,&quot;curved&quot;:0,&quot;rounded&quot;:0};" parent="1" vertex="1">
          <mxGeometry x="260" y="50" width="100" height="300" as="geometry" />
        </mxCell>
        <mxCell id="aM9ryv3xv72pqoxQDRHE-2" value="" style="html=1;points=[];perimeter=orthogonalPerimeter;outlineConnect=0;targetShapes=umlLifeline;portConstraint=eastwest;newEdgeStyle={&quot;edgeStyle&quot;:&quot;elbowEdgeStyle&quot;,&quot;elbow&quot;:&quot;vertical&quot;,&quot;curved&quot;:0,&quot;rounded&quot;:0};" parent="aM9ryv3xv72pqoxQDRHE-1" vertex="1">
          <mxGeometry x="45" y="70" width="10" height="190" as="geometry" />
        </mxCell>
        <mxCell id="aM9ryv3xv72pqoxQDRHE-3" value="dispatch" style="html=1;verticalAlign=bottom;startArrow=oval;endArrow=block;startSize=8;edgeStyle=elbowEdgeStyle;elbow=vertical;curved=0;rounded=0;" parent="aM9ryv3xv72pqoxQDRHE-1" target="aM9ryv3xv72pqoxQDRHE-2" edge="1">
          <mxGeometry relative="1" as="geometry">
            <mxPoint x="-15" y="70" as="sourcePoint" />
          </mxGeometry>
        </mxCell>
        <mxCell id="aM9ryv3xv72pqoxQDRHE-4" value="" style="html=1;points=[];perimeter=orthogonalPerimeter;outlineConnect=0;targetShapes=umlLifeline;portConstraint=eastwest;newEdgeStyle={&quot;edgeStyle&quot;:&quot;elbowEdgeStyle&quot;,&quot;elbow&quot;:&quot;vertical&quot;,&quot;curved&quot;:0,&quot;rounded&quot;:0};" parent="aM9ryv3xv72pqoxQDRHE-1" vertex="1">
          <mxGeometry x="50" y="120" width="10" height="80" as="geometry" />
        </mxCell>
        <mxCell id="aM9ryv3xv72pqoxQDRHE-5" value=":Object" style="shape=umlLifeline;perimeter=lifelinePerimeter;whiteSpace=wrap;html=1;container=0;dropTarget=0;collapsible=0;recursiveResize=0;outlineConnect=0;portConstraint=eastwest;newEdgeStyle={&quot;edgeStyle&quot;:&quot;elbowEdgeStyle&quot;,&quot;elbow&quot;:&quot;vertical&quot;,&quot;curved&quot;:0,&quot;rounded&quot;:0};" parent="1" vertex="1">
          <mxGeometry x="440" y="50" width="100" height="300" as="geometry" />
        </mxCell>
        <mxCell id="aM9ryv3xv72pqoxQDRHE-6" value="" style="html=1;points=[];perimeter=orthogonalPerimeter;outlineConnect=0;targetShapes=umlLifeline;portConstraint=eastwest;newEdgeStyle={&quot;edgeStyle&quot;:&quot;elbowEdgeStyle&quot;,&quot;elbow&quot;:&quot;vertical&quot;,&quot;curved&quot;:0,&quot;rounded&quot;:0};" parent="aM9ryv3xv72pqoxQDRHE-5" vertex="1">
          <mxGeometry x="45" y="80" width="10" height="170" as="geometry" />
        </mxCell>
        <mxCell id="aM9ryv3xv72pqoxQDRHE-7" value="dispatch" style="html=1;verticalAlign=bottom;endArrow=block;edgeStyle=elbowEdgeStyle;elbow=vertical;curved=0;rounded=0;" parent="1" source="aM9ryv3xv72pqoxQDRHE-2" target="aM9ryv3xv72pqoxQDRHE-6" edge="1">
          <mxGeometry relative="1" as="geometry">
            <mxPoint x="415" y="140" as="sourcePoint" />
            <Array as="points">
              <mxPoint x="400" y="130" />
            </Array>
          </mxGeometry>
        </mxCell>
        <mxCell id="aM9ryv3xv72pqoxQDRHE-8" value="return" style="html=1;verticalAlign=bottom;endArrow=open;dashed=1;endSize=8;edgeStyle=elbowEdgeStyle;elbow=vertical;curved=0;rounded=0;" parent="1" source="aM9ryv3xv72pqoxQDRHE-6" target="aM9ryv3xv72pqoxQDRHE-2" edge="1">
          <mxGeometry relative="1" as="geometry">
            <mxPoint x="415" y="215" as="targetPoint" />
            <Array as="points">
              <mxPoint x="410" y="290" />
            </Array>
          </mxGeometry>
        </mxCell>
        <mxCell id="aM9ryv3xv72pqoxQDRHE-9" value="callback" style="html=1;verticalAlign=bottom;endArrow=block;edgeStyle=elbowEdgeStyle;elbow=vertical;curved=0;rounded=0;" parent="1" source="aM9ryv3xv72pqoxQDRHE-6" target="aM9ryv3xv72pqoxQDRHE-4" edge="1">
          <mxGeometry relative="1" as="geometry">
            <mxPoint x="395" y="170" as="sourcePoint" />
            <Array as="points">
              <mxPoint x="410" y="170" />
            </Array>
          </mxGeometry>
        </mxCell>
        <mxCell id="aM9ryv3xv72pqoxQDRHE-10" value="return" style="html=1;verticalAlign=bottom;endArrow=open;dashed=1;endSize=8;edgeStyle=elbowEdgeStyle;elbow=vertical;curved=0;rounded=0;" parent="1" source="aM9ryv3xv72pqoxQDRHE-4" target="aM9ryv3xv72pqoxQDRHE-6" edge="1">
          <mxGeometry relative="1" as="geometry">
            <mxPoint x="395" y="245" as="targetPoint" />
            <Array as="points">
              <mxPoint x="400" y="240" />
            </Array>
          </mxGeometry>
        </mxCell>
      </root>
    </mxGraphModel>
  </diagram>
</mxfile>
